<?xml version="1.0" encoding="UTF-8"?>
<svg version="1.1" viewBox="0 0 2048 2048" width="512" height="512" xmlns="http://www.w3.org/2000/svg">
<path transform="translate(1021,728)" d="m0 0 23 1 18 3 19 5 20 8 21 11 14 10 11 9 5 4v2h2v2h2l7 8 1 1 16-1 487-46 107-10h23l15 3 16 6 12 7 9 7 8 7 10 13 7 12 6 16 3 19v46l24-3 12-1h16l17 3 16 6 15 9 12 11 7 7 9 14 7 16 5 21 9 52 7 51 5 50 2 24 2 1v179l-2 2-4 47-5 44-6 42-9 51-4 15-5 12-6 11-11 14-10 9-14 9-14 6-21 5h-23l-482-51-6-1 13 23 14 24 13 23 10 17 16 28 11 19 15 26 14 24 16 28 11 19 14 24 8 16 3 10v24l-4 13-6 11-9 10-8 7-12 6-18 5-77 16-64 13-4 2-9 11-7 7-6 8h-2l-2 4-11 12-1 2h-2l-2 4-11 12-7 8-9 10-7 8-9 10-7 8-11 12-7 6-14 8-10 4h-26l-16-6-11-7-6-5v-2h-2l-10-14-12-21-14-24-13-23-14-24-16-28-14-24-16-28-30-52-16-28-7-12-4 4-24 42-10 17-6 10-6 11-30 52-11 19-13 22-6 11-15 26-12 21-15 26-8 12-9 10-14 9-15 6h-26l-19-8-13-10-12-13-9-10-7-8-12-14-12-13-12-14-10-11-7-8-10-11-9-11-5-4-12-3-67-14-70-14-15-5-10-6-10-9-8-10-5-11-3-10-1-15 3-16 5-12 14-24 16-28 14-24 30-52 14-24 13-23 14-24 15-26 12-21 9-15 1-3-23 2-244 27h-15l-12-6-7-8-4-10v-12l4-10 7-8 8-5 17-3 252-28 11-1 3-2v-29l1-12v-20l-4-12-6-9-7-7-10-8-12-11-11-12-11-15-9-15-9-19-6-18-5-23-2-23v-10l2-21 5-24 7-20 9-19 10-16 13-16 7-8 9-9 14-11 7-7 6-10 3-10v-19l-1-12v-31l-474-53-22-2h-8l-10 3-9 7-4 5-4 8-5 23-7 40-5 36-4 35-3 31-3 53-1 35v33l1 38 3 52 5 51 7 52 9 51 4 14 5 8 1 3 4 2 9 5 7 2h14l79-9 11-1h15l10 4 8 7 6 12v14l-4 9-7 8-6 4-13 3-98 11h-21l-15-3-15-6-11-6-9-7-7-6v-2h-2l-8-10-8-13-6-15-5-23-7-40-7-49-5-46-3-34v-12l-2-1v-163l1-3 6-67 7-55 7-43 7-35 5-14 7-14 8-10 8-9 13-10 17-9 13-4 14-2h16l36 4v-48l4-20 7-17 7-11 10-12 8-7 13-9 15-7 15-4 7-1h22l129 12 372 35 105 10h5l16-17 10-8 14-10 14-8 14-7 24-8 26-5zm1 61-22 2-21 6-16 8-11 7-10 8-13 13-8 10-7 8-2 1v2l-4 2-9 7-14 8-16 6-19 4h-25l-10-1h-22l-18 3-18 6-19 10-14 11-15 15-9 13-7 12-7 19-3 12-2 23 2 28v10l-2 16-4 14-6 15-9 14-11 13-14 12-10 9-7 7-9 12-9 16-6 15-4 17-1 8v26l3 17 6 18 8 16 10 14 4 5h2l2 4 10 9 11 9 11 11 9 13 8 15 5 16 2 9 1 11-1 22-1 12v12l3 21 6 18 8 16 7 11 11 13 12 11 10 7 16 9 17 6 18 4h31l11-1h15l16 2 18 6 14 7 11 8 10 9 12 13 9 11 4 2v2l17 13 17 9 14 5 18 4 13 1h10l18-2 19-5 16-7 14-9 10-8 8-7 9-11 9-10v-2l4-2 10-9 15-9 14-6 17-4 9-1h16l12 1h28l20-4 16-6 17-9 13-10 10-9 11-13 9-15 7-16 5-19 2-18-1-20-1-13v-11l2-15 6-20 9-17 10-13 10-10 11-9 5-4 7-8 9-10 11-18 7-18 4-17 1-8v-25l-4-21-6-17-9-17-9-12-6-7h-2l-1-3-8-7-13-11-8-8-9-12-9-17-5-15-3-21v-10l2-29-2-22-4-15-6-16-8-14-9-12-11-12-17-13-12-7-18-7-18-4-7-1h-24l-11 1h-23l-19-4-15-6-14-8-11-9-9-9-9-11-18-18-15-10-16-8-15-5-14-3zm-768 7-10 4-11 10-5 9-2 15v44l23 3 379 42h11l11-19 10-14 13-15 9-9 17-13 20-13v-1l-35-4-108-10-307-29zm1522 0-432 41-12 1-3 2 17 11 12 9 14 12 7 7 9 11 12 17 8 14 16-1 170-18 200-21 26-3 2-6v-41l-2-11-5-10-5-5-5-4-9-4-4-1zm144 132-491 52-3 1 1 9v23l-2 27 3 14 5 9 9 10 14 12 12 11 9 11 8 10 8 13 8 15 6 15 6 20 4 25 1 22-2 21-3 17-6 21-8 18-8 15-8 12-13 16-12 12-8 7-11 9-7 9-4 8-2 7v20l1 12v33l1 1 171 18 292 31 28 3h14l12-5 8-7 6-9 4-16 6-34 6-38 5-42 3-31 3-49 1-26v-77l-2-43-4-51-5-43-7-47-8-43-5-12-7-8-8-5-10-3zm-1252 640-6 12-14 24-15 26-14 24-16 28-14 24-20 35-14 24-11 19-15 26-5 10 8 3 59 12h7l16-28 14-24 11-19 14-24 16-28 30-52 14-24 13-23 1-4-18-10-14-10-10-8-10-9-4-4zm709 0-11 11-14 11-15 10-17 9 8 14 14 25 14 24 45 78 14 24 16 28 11 19 8 14h7l59-12 7-2-1-6-14-25-16-27-10-18-14-24-30-52-14-24-16-28-14-24-12-21-3-4zm-545 56-9 1-35 1-14 25-10 17-15 26-14 24-16 28-30 52-28 48v3l23 6 16 8 13 12 8 9 4-4 30-52 14-24 16-28 15-26 14-24 16-28 15-26 14-24 7-13-2-4-11-5-9-2zm373 0-10 2-12 6-1 3 10 18 14 24 16 28 14 24 16 28 14 24 8 14 14 24 16 28 15 26 6 10h3l15-16 10-7 13-6 21-5-2-6-15-27-16-27-13-23-14-24-16-28-14-24-16-28-20-34-2-2h-13l-23-1-8-1zm-295 55-4 8-14 24-13 23-14 24-9 16-14 24-15 26-14 24-12 21-11 19-15 26-10 17 1 4 12 13 9 11 12 13 7 8 6 7h4l10-17 15-26 16-28 28-48 13-23 15-26 12-21 15-26 11-19 15-26 9-16-2-2-13-4-18-8-18-10-12-8zm226 0-11 7-17 10-21 9-14 5 6 12 10 17 16 28 14 24 16 28 11 19 15 26 16 28 30 52 11 19 14 24 5-1 11-12 7-8 12-14 3-3v-2h2l7-8 4-4-1-6-30-52-14-24-16-28-14-24-16-28-14-24-16-28-14-24-8-14-2-4z"/>
<path transform="translate(1007)" d="m0 0h36v2l20 8 31 14 41 18 31 14 41 18 31 14 41 18 31 14 79 35 108 48 65 29 13 7 12 11 7 9 5 11 3 11 1 6v9l-3 15-5 12-8 11-8 8-16 9-26 12-30 13-42 19-41 18-29 13-25 11-16 7-1 114-1 19-4 16-5 12-9 14-9 10-7 7-14 9-13 6-14 4-18 2h-472l-17-2-16-5-14-7-12-9-11-11-9-13-7-14-4-14-2-17v-121l-6-2-26-12-99-44-32-14-7-3v66l6 1 15 8 12 9 10 10 9 13 8 16 5 19 1 9v76l-2 13-5 13-7 11-11 11-12 7-12 4-15 2h-69l-17-3-16-8-10-9-7-8-8-16-3-11v-84l3-16 6-16 8-14 10-13 11-10 14-9 13-6v-99l-8-11-6-13-3-14v-9l3-15 5-12 7-10 4-5h2v-2l14-9 21-10 61-27 20-9 9-3 8-1 12 3 6 4 5 5 5 8 2 12-2 10-6 10-8 6-19 9-32 14-40 18-15 7 3 3 39 18 41 18 40 18 23 10 31 14 11 5v-54l2-12 5-13 7-10 8-9 10-7 11-5 8-2 16-1h64l476 1 13 4 13 8 10 9 9 14 4 10 1 5 1 14v48l28-13 25-11 40-18 25-11 38-17 25-11 7-4-4-3-28-13-41-18-31-14-41-18-31-14-41-18-40-18-234-104-23-10h-7l-12 6-41 18-40 18-41 18-83 37-41 18-29 13-10 3h-11l-10-4-8-7-6-12v-15l6-12 7-6 16-8 41-18 40-18 25-11 31-14 18-8 32-14 90-40 12-5zm-249 325-2 2v137h532l4-1v-89l-1-49zm-273 166-7 3-6 4-7 7-5 10-2 11v67l2 3h67l2-1 1-55-1-22-4-10-6-8-8-6-8-3zm272 33-1 3v36l2 11 6 10 8 7 9 4 7 1h472l12-3 9-6 7-8 3-9 1-45-1-1z"/>
<path transform="translate(1006,927)" d="m0 0h34l23 2 23 4 23 6 20 7 17 7 16 8 18 10 16 11 13 10 13 11 7 7 8 7 7 8 12 14 14 19 12 20 11 21 11 27 8 28 4 20 3 23 1 18v13l-1 20-4 29-6 26-9 27-8 18-10 20-14 22-12 16-11 13-12 13-8 8-8 7-16 13-18 12-17 10-17 9-27 11-24 7-29 6-26 3h-40l-31-4-26-6-33-11-24-11-21-12-12-8-16-12-14-12-24-24-9-11-10-13-12-18-9-16-12-25-10-28-7-30-4-28-1-15v-23l3-31 5-26 8-28 8-20 12-25 10-17 12-17 11-14 11-12 10-11h2l1-3 8-7 13-11 17-12 14-9 18-10 19-9 25-9 26-7 24-4zm4 61-27 3-28 7-22 8-21 10-21 13-17 13-16 15-9 9-11 14-9 12-9 15-10 19-8 21-7 24-4 21-2 32 2 29 3 17 6 23 8 22 9 19 11 18 14 19 12 13 4 5 8 7 11 10 11 8 14 9 16 9 15 7 21 8 24 6 19 3 11 1h32l23-3 15-3 21-6 20-8 16-8 14-8 12-8 14-11 12-11 14-14v-2h2l15-20 8-13 9-16 8-18 8-25 5-23 2-17v-40l-2-17-5-23-6-19-6-16-11-22-12-19-11-14-9-10-6-7-8-7-10-9-18-13-15-9-15-8-25-10-21-6-20-4-20-2z"/>
<path transform="translate(1007,1060)" d="m0 0h34l19 3 17 5 15 6 17 9 14 10 11 9 14 14 12 16 9 16 6 12 7 21 4 20 1 8v29l-5 27-7 20-8 17-9 14-11 14-5 6h-2l-2 4-8 7-13 10-15 9-19 9-20 6-15 3-18 2h-13l-24-3-19-5-18-7-17-9-17-12-15-14-11-12-10-14-10-18-6-15-4-13-4-19-1-7v-30l3-19 5-18 5-13 8-16 9-14 11-14 16-16 16-12 19-11 15-6 16-5 14-3zm3 61-18 4-16 7-11 7-11 9-11 12-9 14-6 13-4 13-2 14v18l3 17 6 16 5 10 10 14 12 12 13 9 16 8 17 5 7 1h26l15-3 16-6 14-8 11-9 9-9v-2h2l9-14 6-12 5-16 2-14v-17l-3-17-5-15-9-17-9-11-10-10-13-9-16-8-17-5-7-1z"/>
<path transform="translate(1010,1192)" d="m0 0h27l11 4 9 8 5 10 1 3v11l-4 10-7 8-8 5-8 2h-26l-10-4-8-7-5-8-2-7v-9l4-11 9-10 8-4z"/>
<path transform="translate(1217,2047)" d="m0 0 2 1z"/>
<path transform="translate(797,2047)" d="m0 0 2 1z"/>
</svg>
