<?xml version="1.0" encoding="UTF-8"?>
<svg version="1.1" viewBox="0 0 2048 2048" width="512" height="512" xmlns="http://www.w3.org/2000/svg">
<path transform="translate(868,152)" d="m0 0h14l10 3 11 7 9 9 8 16 4 13v4l33-7 20-3 14-1h22l20 3 16 5 36 12 32 9 24 6 21 7 18 8 16 8 18 11 14 10 13 11 13 12 9 10 11 15 15 27 8 19 5 19 2 13v31l-4 23-7 18-4 10-9 14-9 12-10 10-8 7h-2l2 20 3 22v40l-2 18-7 35-12 34-9 20-7 17-3 11-1 8 2 14 8 20 11 26 4 14v17l-6 12-8 8-11 5-8 2h-16l-32-7h-10l-10 4-11 9-8 8-12 16-10 13-6 7h-2l-2 4-15 12-16 8-17 5-11 2h-17l-22-5-21-9-15-9-22-14-18-13-3-2-5 1-23 14-14 11-14 12-15 16-10 13-9 13 1 6 20 49 10 26 15 44 5 14 8 4 31 12 25 8 25 7 40 9 40 6 33 3 17 1h39l40-3 50-7 29-4h23l16 3 13 5 12 7 9 6 15 4h11l13-3 16-8 21-14 1-2-4-2-13-11-20-18-15-15-7-8-13-15-15-20-10-15-8-16-4-13v-18l4-13 6-9 4-5 11-7 9-3h18l13 4 11 7 10 8v2h2v2h2l7 8 12 14 44 52 9 11 13 15 9 11 12 14 5 6 23 3 20 6 19 10 11 8 10 9 8 8 10 14 9 17 7 21 3 19v19l-4 18-9 19-4 8 78-13h12l4 5 2 16 2 30 21-1h10l-1-22-4-165-4-156-2-76v-46l4-6 5-3 17-1h149l10 2 6 7 1 2v32l-1 32h34l67 1 13 1 8 7 1 2v26l-8 162-6 124-3 60v21l16 8 12 12 7 13 2 6v4l2 1v151h-1l-1 7-1 31-1 11-4 6-3 3-3 1h-90v224l-1 58-4 6-5 4h-47l-126-2-10-2-5-6-2-7 1-25 9-163 4-76v-12l-368-2-305-2-160-2-3-1 8 157 6 117v20l-4 7-8 4-16 3-33 4-43 3h-33l-41-2-14-2-6-4-3-6-1-4-1-16v-39l-71 2-302 7-59 3-61 2h-10l-20-2-11-4-9-6-7-8-6-12-3-14-3-29-11-177-1-12-19-2-17-5-13-7-11-9-3-3v-2h-2l-10-14-9-19-6-21-6-32-20-134-16-120-12-102-7-60-6-39v-5l-2-1v-46h2l2-10 6-14 8-11 8-9 17-13 14-8 17-7 19-4 8-1h16l13 2 13 4 19 8 17 12 9 7 7 8 10 14 8 16 7 21 8 40 12 74 9 58 10 62 1 3 8-19 17-41 12-24 10-19 13-24 15-23 12-19 8-12 11-15h2l2-4 24-32h2l2-4 3-4h2l2-4 16-17 14-15 7-8h2l2-4h2v-2l8-7 12-11 11-9 13-12 10-8 16-12 36-26 28-17 29-17 16-8 12-5 19-5 7-9 8-7 7-7 9-11 10-13 10-15 6-10 2-5-10-1-12-3-16-7-13-9-11-11-7-10-8-16-8-22-9-36-8-38-4-29-1-9v-46l4-29 5-21 7-20 7-16 11-20 10-14 9-11 9-10 8-8 14-11 15-10 8-5-6-8-5-11-2-12 2-11 6-10 9-8 9-3h15l12 3 5 2-2-10v-16l4-12 6-9 9-8 10-4h16l10 4 8 7 4 5h2l6-11 8-10 9-7 10-5zm3 29-8 5-6 10-4 17-2 20-3 6-6 4h-9l-6-4-24-36-4-4h-5l-4 6-1 7 3 12 12 22v9l-4 6-8 3-4 1h-12l-13-4-22-8h-5l-2 2 1 7 8 7 16 8 4 3h2l2 6v8l-4 6-8 4-21 8-15 8-12 9-13 11-13 14-14 21-11 21-8 21-5 21-3 19-1 13v32l4 33 6 31 9 38 6 20 5 11 7 12 9 10 11 7 11 4 10 2h13l13-1 21-8 9-6 12-9 1-4-5-15-1-5v-25l3-14 5-15 10-18 9-12 5-5v-2h2v-2l4-2 13-10 17-8 16-4h18l11 2 13 5 11 7 10 10 5 9 5 12 2 12v17l-3 16-6 18-12 29-6 18-1 5v20l3 9 6 8 10 5h12l12-4 9-7 9-10 7-15 4-13 11-57 6-20 8-18 9-13 1-3h2l5-5 10-8 10-6 19-7 23-4h46l22 1h34l16-3 13-5 11-6 10-8 7-6 11-14 6-10 8-19 4-21v-15l-2-20-6-20-6-15-11-19-10-13-11-12-10-10-13-10-19-12-34-17-21-7-57-15-44-15-16-3h-33l-21 3-25 6-23 7h-7l-6-5-2-6-2-18-4-15-6-9-6-4zm-109 48m108 304-14 3-14 8-10 9-7 7-9 15-5 13-3 13v15l4 14 8 12 4 5 8 5 7 1 10-4 5-3h10l6 4 3 6v7l-4 6-8 6-9 4-8 2h-13l-10-3-11-6-5-4-4 2-16 12-18 9 3 10 10 22 13 22 14 19 8 10 22 24 7 7 8 7 12 11 14 11 15 12 11 8 17 12 18 13 13 9 22 14 19 10 13 4 5 1h21l16-5 11-6 10-9 8-8 12-16 10-13 11-12 11-8 16-8 7-2 13-1 15 2 20 5 11 1 8-4v-7l-7-19-12-28-5-17-1-6v-17l4-17 9-21 11-26 7-19 6-25 3-19 1-18v-23l-3-30-3-1-21 5-19 2h-14l-47-2h-27l-20 3-16 6-11 7-7 7-7 10-6 15-7 29-10 49-6 16-9 17-12 14-15 10-16 6-12 2h-9l-11-2-14-7-7-6-6-9-5-10-3-9-2-14v-9l2-14 5-18 15-36 4-13 3-14v-9l-2-10-4-9-7-7-11-5-9-2zm-128 181-18 30-7 9-12 14-9 11-3 4 16 10 10 9 11 12 9 13 11 18 24 42 14 27 10 19 7 13 5-5 14-17 18-18 14-11 12-9 16-10-5-4-17-14-13-10-13-12-11-9-18-18-7-8-12-14-15-20-15-24-11-22-3-5zm-84 92-13 4-21 10-23 13-18 11-21 14-16 12-21 16-13 10-10 8-16 15-30 28-11 11-9 11-5 5v2h-2l-9 11-13 15-10 12-4 6-12 17-20 28-14 24-13 23-10 18-8 16-11 25-11 26-6 16-12 36-6 21v9l12 87 12 88 2 21v24l-2 11-4 10-9 13-8 8-13 8-3 32-1 15v53l4 72 3 31 3 15 4 10 6 8 7 6 12 6 12 3 7 1 19 1 69-1 79-2 19-1 4-9 5-21 2-11 1-12 1-35-3-34-5-37-11-74-3-28-1-16v-37l3-36 5-33 9-38 11-35 12-29 12-25 13-24 21-33-10-13-9-12-10-16-2-4v-9l3-5 5-3 7-1 8 4 15 22 13 16 9 9 8 7 13 12 19 13 17 11 27 14 19 9 36 14 40 13 29 8 41 11 43 11 29 7 57 10 34 4 41 3 27 1h51l31-1 3-23 2-22v-37l-3-30-4-24-9-37-5-1-17 1h-46l-56-5-27-4-43-9-20-5-55-18-26-11-26-12-21-10-22-13-32-19-18-13-11-8-14-11-13-11-8-7-10-9-7-6-5-5-4-5h-2l-2-4-12-12-3-7 1-10h2l4-4 5-2 6 1 9 6 33 33 11 9 14 12 14 11 23 16 12 8 16 10 27 15 7 4-3-11-9-24-13-35-13-30-15-34-29-58-14-24-10-18-12-20-10-14-11-12-8-6-8-4-6-2zm1083 79 1 61 1 7 31-1 93-4 6-1 1-21 1-41zm-1638 18-12 2-12 5-18 10-12 8-10 9-6 9-4 16v19l6 44 5 38 14 121 17 129 17 114 7 44 5 22 6 16 6 11 10 11 14 8 14 3 10 1h9l22-3 23-5 27-8 14-8 7-7 5-10 1-5v-20l-5-42-22-159-26-165-16-101-8-39-6-16-6-12-10-13-10-9-13-8-14-6-14-3zm1801 56-2 1-2 60v9l38-1 55-2 2-22 2-43-1-1zm-39 5-108 5-14 1 1 35 24-1 103-7 1-1 1-32zm-536 25-6 4-3 6v14l6 15 9 13h4l13-12 11-9 5-5-6-8-11-11-8-5-6-2zm541 24-101 7-17 1-7 1v31l4 163 1 40 1 23h30l83-2 1-1 1-15 2-79 2-90 1-36v-43zm-493 16-7 7-8 7-13 11-2 3 7 8 7-6 12-11 8-7 4-4-1-4-3-4zm589 14-59 2-7 1-1 18-4 166v11l33-1 47-2 8-1 1-9 6-123 3-62zm-570 7-10 9-2 1v2l-4 2-7 7-8 6 5 7h2l2 4 5-1 13-12 11-9 4-3-1-4-7-9zm21 25-8 8-11 9-9 8v3l9 7 14 12 11 9 5-1 28-11-6-8-11-13-9-11-11-12zm67 69-18 2-18 6-11 6-16 11-20 14-13 8-17 8-16 4-9 2 3 9 6 20 3 17 3 34v37l-1 11h88l58-1 10-4 12-8 10-8 22-22 11-17 8-16 2-8v-21l-3-15-6-16-9-15-9-11-13-11-15-8-15-5-18-3zm-233 35-23 3-4 1 2 9 9 30 5 25 4 25 2 27v32l-2 29 14-1 33-4 20-4 8-4 7-6 4-8 2-8 1-28-2-35-3-19-6-20-7-14-9-12-9-8-14-7-13-3zm-49 7-27 4-2 1 1 8 8 33 4 28 2 24v40l-3 34v7l30-2 10-1 2-1 2-22 1-16v-16l-2-34-6-35-5-20-9-29-1-3zm-615 58-14 22-10 17-12 23-11 25-9 24-9 28-8 35-4 25-3 26-1 20v31l2 28 9 64 8 54 3 31v44l-2 24-6 27-1 5h52l161-4v-50l-2-117-1-43-3-1-68-4-56-6-15-3-5-3-3-7v-22l7-142 2-35 3-9 6-3 200-1v-2l-17-5-29-9-30-11-37-15-26-13-19-11-12-8-17-12-11-9-9-8zm1386 10-72 3-6 1-1 17-1 54h85l1-1 3-61v-13zm-149 40-72 2v34h76l36-1 1-35zm-157 4-89 15-8 7-10 10v1h114v-13l-2-20zm149 60-386 2-37 1-35 3-28 5-36 8-29 7-29 6-33 4-15 1h-98l-41-2-39-4-73-10-43-5h-52l-31 2-23 1h-50l-74-1h-48l-1 6-8 162 13 2 50 4 38 2 29 1 76 1h54l104-1 35-1 98-1h80l75 1 197 4 76 1 377 2h107l3-55 3-40 3-35v-33l-3-12-6-10-8-7-12-5-12-2-22-1-54-1zm-1588 203-36 7-3 1 4 51 2 28 2 54 4 66 3 26 5 8 7 3 5 1h34l-7-11-7-14-4-14-4-30-4-61-1-18v-67l2-30zm653 19-28 6h-41l-44-3h-10v25l1 89 1 170h84l59-1v-64l-1-36-4-75-1-44v-50l-2-9-4-6-2-2zm908 7-1 2-5 78-3 46-4 74-1 33v29l85 1 39 1h15l1-147v-116h-10l-26 2h-28l-47-3z"/>
<path transform="translate(847,554)" d="m0 0h12l10 4 7 6 6 10 3 12v18l-3 14-4 5-6 1-8-6-6-3-9 2-6 7-4 2-5-1-4-4-1-6 4-8 9-7 8-3h9l9 2-2-17-5-8-5-2h-13l-5-5v-7l6-5z"/>
<path transform="translate(1476,1158)" d="m0 0h12l11 4 8 7 5 6 4 12-1 5-4 4h-7l-5-6-5-10-4-3-3-1-16-1-4-4v-8l4-4z"/>
<path transform="translate(1523,1207)" d="m0 0h7l10 5 7 6 6 12 1 3v11l-3 5-6 2-5-3-3-5-2-11-5-6-10-6-2-3 1-6z"/>
</svg>
