<?xml version="1.0" encoding="UTF-8"?>
<svg version="1.1" viewBox="0 0 2048 2048" width="512" height="512" xmlns="http://www.w3.org/2000/svg">
<path transform="translate(1022,187)" d="m0 0 13 2 27 10 131 50 34 13 39 15 11 6 7 7 4 8 1 4v12l-4 10-7 8-10 5-7 2-9-1-21-7-52-20-58-22-76-29-18-7-9 1-47 18-228 87-202 77-84 32-97 37-197 75-44 17 10 4 37 14 131 50 89 34 39 15 37 14 362 138 84 32 47 18 45 17 21 8 4 1 20-8 186-71 84-32 105-40 29-11 2-2-119-54-73-33-35-16-36-16-39-18-29-13-35-16-29-13-33-15-16-8-7-6-5-9-2-6v-9l4-11 6-8 10-6 8-2 10 1 16 6 39 18 36 16 39 18 29 13 40 18 35 16 29 13 35 16 60 27 42 19 35 16 29 13 33 15 4 2h7l41-16 105-40 97-37 45-17 39-15 37-14 24-9-1-2-44-17-50-19-160-61-181-69-52-20-45-17-31-12-10-5-7-6-5-9-2-7v-7l3-11 7-9 10-6 8-2 10 1 21 7 36 14 71 27 84 32 76 29 84 32 76 29 97 37 39 15 37 14 28 11 11 6 7 8 4 7v160h-2l-4 7-8 7-10 5-97 37-84 32-105 40-18 7-1 175v298l-2 15-4 8-8 9-57 42-10 7-22 14-23 14-19 12-7 4-1 32v124l10 3 16 8 11 7 11 9 8 8 9 12 8 14 5 11 4 14 2 13v24l-3 17-6 18-9 17-9 11-9 10-12 10-15 9-15 6-18 5-10 1h-21l-14-2-21-7-17-9-16-13-9-9-10-14-8-14-7-21-3-22v-9l3-21 4-14 7-16 10-15 9-10 4-5 13-10 15-9 17-7h3l-1-121-36 16-22 10-31 12-27 10-49 16-37 10-36 9-50 10-38 6-41 5-49 4-48 2h-24l-84-4-71-9-25-4-48-10-40-9-30-9-29-9-25-8-26-10-35-14-27-11-80-40-28-17-46-28-17-12-38-28-18-13-10-9-5-7-3-11v-257l4-12 7-9 11-6 5-1h7l11 3 8 6 4 5 4 8 1 5 1 241 18 13 17 12 18 13 13 9 13 8 25 15 29 17 18 10 29 14 19 9 16 8 30 12 41 16 27 9 68 20 71 15 32 5 49 6 24 2 42 2 37 1 43-1 33-2 49-5 57-9 47-10 25-6 52-15 44-15 36-14 35-15 29-14 23-11h2l-1-480-47 18-173 66-21 8-50 19-29 11-39 15-103 39-14 4-9-1-18-6-44-17-45-17-105-40-152-58-118-45-52-20-45-17-29-11-18-7v84l-3 11-7 9-7 5-11 3-11-1-10-5-5-5-5-7-3-11v-107l-9-3-42-16-113-43-131-50-19-8-10-9-5-8v-159h2l1-4 5-8 9-6 14-6 45-17 39-15 241-92 84-32 105-40 283-108 45-17 39-15 45-17 47-18 13-4zm-961 455v72l10 5 16 6 45 17 105 40 84 32 84 32 31 12 37 14 39 15 37 14 84 32 97 37 84 32 160 61 15 6h4v-72l-36-14-105-40-257-98-52-20-45-17-105-40-97-37-97-37-123-47-13-5zm1925 0-30 11-47 18-152 58-84 32-79 30-28 11-1 8v65l10-3 52-20 157-60 105-40 50-19 45-17 2-1 1-73zm-486 185-105 40-110 42-37 14-26 10-21 8-84 32-50 19-12 5v72l6-1 36-14 47-18 147-56 105-40 87-33 19-7 1-1v-72zm155 80-30 11-55 21-5 3v468l11-6 24-16 19-13 19-14 18-13 1-6v-435zm-123 787-13 2-10 4-11 8-9 10-6 13-3 15 1 12 4 13 7 12 8 8 14 8 11 3 11 1 13-2 11-5 9-6 5-4 8-11 5-12 1-5v-19l-4-13-6-10-9-10-14-8-9-3z"/>
</svg>
