<?xml version="1.0" encoding="UTF-8"?>
<svg version="1.1" viewBox="0 0 2048 2048" width="512" height="512" xmlns="http://www.w3.org/2000/svg">
<path transform="translate(1007)" d="m0 0h32l8 3 45 14 31 10 57 18 31 10 57 18 195 62 31 10 57 18 31 10 32 10 31 10 15 6 12 7 8 7 8 11 5 10 3 11 1 15-2 14-5 13-7 11-5 6-11 8-10 5-19 5-169 29-6 1v131l-3 13-6 12-8 10-6 5-1 10-1 247-4 16-4 10-7 11-9 10-9 8-14 8-15 5-4 1-4 27-6 27-8 26-8 21-8 18-12 22-10 16-7 10-9 12-7 9-10 11-7 8-16 16-8 7-15 12h-2v40l11 8 17 11 43 28 49 32 26 17 72 47 32 21 10 6 15 5 66 19 43 13 23 8 20 9 23 12 24 16 14 11 14 12 20 20 9 11 14 18 12 19 13 24 9 21 7 20 6 21 5 27 2 18 1 17v305l-3 22-5 16-7 16-9 14-8 10-2 3h-2l-2 4-13 11-14 9-17 8-19 6-7 2h-1412v-2l-17-5-17-7-16-10-13-12-10-10-10-14-9-17-5-14-4-17-1-7v-79l4-10 5-6 9-6 6-2h12l9 3 6 4 6 8 4 11 1 72 3 14 8 16 10 12 10 7 13 6 13 3 140 1v-131l4-13 8-9 10-5 4-1h9l10 3 9 7 6 10 2 16-1 123h981v-132l3-10 6-8 8-6 9-3h8l10 3 6 4 8 9 3 8v135l141-1 13-3 16-8 9-8h2l2-4 7-10 5-12 2-8 1-9v-295l-1-21-4-27-6-23-8-22-9-19-11-19-12-17-12-14-9-10-13-12-17-13-17-11-23-12-14-6-27-9-71-21-32-9-10 5-20 12-27 16-20 12-49 29-25 15-54 32-17 10-15 9-27 16-40 24-29 17-25 15-44 26-25 15-19 11-10 4-11 1-10-3-66-39-25-15-17-10-22-13-25-15-44-26-15-9-29-17-45-27-29-17-25-15-27-16-32-19-15-9-32-19-12 3-68 20-40 12-21 8-17 8-20 12-16 12-11 9-8 8h-2v2h-2l-2 4-8 8-11 14-7 10-10 16-10 19-9 23-7 24-4 21-2 26-1 101-3 10-6 8-8 6-11 3-11-1-10-5-8-9-4-10v-113l3-29 5-25 7-25 11-28 11-22 12-20 12-17 13-16 7-8 22-22 11-9 19-14 17-11 24-13 26-11 35-11 96-28 12-5 19-12 29-19 20-13 32-21 52-34 25-16 21-14 49-32 9-6 1-1v-38l-8-7-11-9-8-7v-2l-4-2-12-12v-2h-2l-7-8-11-13-12-16-13-20-9-16-9-17-8-19-7-19-7-24-6-29-2-13v-9l-12-3-12-5-11-7-10-9-8-9-8-14-5-14-2-15-1-249-10-10-7-11-5-13-1-4v-134l-36-6-111-19-1 144h10l11 3 14 7 10 8 7 8 8 15 3 13 1 86 3 22 11 65 19 112 7 42v18l-2 10-7 16-7 9-5 5-8 7-14 7-11 3-8 1h-148l-15-3-16-8-12-11-8-11-5-10-3-9-1-6v-17l10-60 18-105 11-65 1-9 1-89 3-12 7-14 9-11 12-9 10-5 12-3 10-1v-161l-1-3-4-2-9-11-7-14-3-13v-17l3-13 8-16 11-12 10-7 14-6 35-11 31-10 59-19 57-18 56-18 195-62 41-13 64-20 71-23zm13 61-69 22-57 18-35 11-31 10-53 17-57 18-35 11-31 10-53 17-35 11-51 16-31 10-57 18-11 4-2 2 1 4 25 5 53 9 110 19 13 2 13-1 275-34 49-6 36-3 24-1h25l37 2 40 4 97 12 14 3 10 6 6 9 3 9v8l-4 11-8 9-9 4-4 1h-11l-106-13-42-4-26-1h-24l-33 2-47 5-281 35-2 1v122h756v-122l-10-2-41-5-11-3-9-6-6-9-2-7v-10l4-11 7-8 7-4 10-2 36 4 41 5h7l98-17 89-15 13-3 1-3-3-3-36-12-57-18-31-10-32-10-31-10-40-13-57-18-226-72-50-16-46-14zm-647 471v54h66v-54zm366 3-69 1v91l1 4h39l13-4 10-9 6-10 1-4 1-68zm63 1-1 59-2 21-5 16-7 14-12 16-11 10-15 9-15 6-13 3-9 1-41 1-1 2 1 82 4 6 6 5 8 2 13 2 12 5 8 7h2l2 4 6 10 3 10 5 38 6 27 8 24 9 21 8 16 10 17 12 17 8 10 12 14 17 17 11 9 15 12 17 11 16 9 16 8 25 10 19 6 28 6 28 3h39l26-3 28-6 19-6 21-8 23-11 20-12 17-12 11-9 10-9 8-7 9-9 9-11 11-13 15-23 9-16 9-19 10-27 6-23 4-21 4-31 4-12 8-11 9-7 8-4 6-2 15-2 8-4 5-6 1-5v-81l-43-1-14-2-15-5-15-8-9-7-10-9-10-14-8-16-4-14-2-13-1-67zm505 0v64l2 8 5 9 4 5 7 5 13 4h39v-95zm-938 111-2 6-11 63-11 65-6 36-7 41 1 7 2 2h142l2-1 1-8-10-61-21-123-5-27zm506 483v42l2 29 4 33 7 38 6 24 3 3 32 5 38 4 36 2h42l36-2 38-4 32-5 3-4 7-30 5-27 5-40 1-14 1-33v-21l-26 10-30 10-21 5-23 4-29 3h-44l-26-3-28-5-25-7-21-7-23-10zm356 73-5 42-8 42-9 35-8 26-8 23-12 29-11 24-13 26-11 19-11 18-10 16-3 5 5-2 19-11 13-8 29-17 28-17 29-17 27-16 15-9 54-32 15-9 59-35 9-5-5-5-24-16-32-21-17-11-46-30-55-36-13-8zm-418 1-10 7-124 81-20 13-12 8-20 13-3 2v2l16 9 55 33 17 10 20 12 71 42 15 9 49 29 25 15 27 16 6 3-1-4h-2l-1-4-11-18-8-13-9-16-12-23-8-16-13-30-11-30-9-28-8-29-6-29-6-36-3-25-1-3zm105 160 1 5 11 24 10 21 13 23 14 23 21 32 11 17 21 32 3 4 4-2 10-16 12-18 16-25 10-15 15-24 10-17 12-22 12-26 7-16-16 1-44 4-21 1h-55l-33-2-39-4z"/>
<path transform="translate(1042)" d="m0 0"/>
</svg>
