<?xml version="1.0" encoding="UTF-8"?>
<svg version="1.1" viewBox="0 0 2048 2048" width="512" height="512" xmlns="http://www.w3.org/2000/svg">
<path transform="translate(885)" d="m0 0h330l19 7 15 8 11 9 10 10 9 14 6 13 4 14 3 22 23 3 16 5 15 8 9 7 9 8 10 13 8 15 4 12 2 12 1 69-1 133-2 8v10l2 8 1 51v51l-1 23-4 16-6 12-8 11-10 10-14 9-13 5-7 2h-4l-1 11-5 25-6 21-8 21-7 15-9 17-7 11-12 17-11 13-9 10-13 13-28 22-15 10-8 5 1 14 4 14 6 13 8 12 8 8 11 8 18 8 76 16 26 7 29 10 21 9 16 7 19 10 27 16 10 7 6 1 28-1h74l14 2 12 4 11 6 10 8 8 8 8 13 5 11 3 14 1 47 14 11 9 10 8 13 5 13 2 11v58l-2 6-6 9-6 5-6 3-5 1h-12l-10-4-8-8-5-10-1-6-1-48-3-6-1-3-5-2-2-1h-87l-56 3-52 5-37 5-37 6-43 9-36 9-39 12-29 10-34 14-33 16h-2l-1 727 36-16 38-14 32-10 37-10 45-10 44-8 59-8 56-5 60-3h91v-159h-59l-15-2-10-3-12-6-9-7-5-4-8-10-6-10-5-14-2-12v-101l3-19 6-16 8-14 11-14 10-9 15-10 14-6 17-4 11-1 32-1 3-3 1-112 3-10 6-8 8-6 8-3h11l11 4 7 6 6 10 2 15v30l1 4 26 15 16 11 10 8 16 16 9 13 9 17 5 16 2 10 1 11v99l-2 16-6 21-9 19-12 17-12 12-10 9-16 10-15 7-12 4-1 2v87l-1 79-2 11-7 16-7 9-7 7-11 7-12 5-9 2-105 1-56 3-44 4-46 6-45 8-36 8-39 10-42 13-27 10-24 10-24 11-31 16-15 8-22 8-23 6h-46l-30-8-19-8-25-13-19-10-31-14-37-14-37-12-32-9-39-9-35-7-47-7-44-5-56-4-27-1-103-1-14-4-11-6-12-11-7-9-6-12-3-11-1-8v-164l-5-1-16-6-16-9-13-10-16-16-10-14-6-10-7-17-4-15-2-12-1-22v-71l1-17 4-20 6-16 9-16 9-11 9-10 14-12 17-11 24-14h2l1-226 2-14 5-14 6-11 8-10 9-9 8-5 1-41 2-14 5-15 8-14 10-11 11-8 14-7 11-3 8-1h82l24 1 7-3 19-12 23-13 22-11 32-13 30-10 24-6 38-8 29-6 16-6 11-6 12-10 8-10 8-15 4-13 1-6 1-25-17-13-13-11-13-12-11-12-9-11-13-18-11-19-8-16-8-18-8-25-4-16-4-24-15-3-16-6-14-8-11-9-7-8-8-10-7-12-5-13-3-13-1-8v-77l3-18 6-16 8-14 3-4v-54l4-11 5-7 7-5 9-3h11l10 4 7 5 6 9 2 7 1 45 3 7 4 4 18 7 29 10 2 1v-103l4-18 5-12 4-8 8-11 9-10 15-11 17-8 15-4 7-1h23l15 3 16 6 10 6 13 10 36 36 11 9 17 13 16 10 14 8 21 10 20 7 19 5 19 3 9 1h32l23-3 18-3h22l13 4 11 6 12 11 6 8 7 11 7 6 7 3 5 1h8l8-3 3-1 2-4 2-5v-188l-4-11-6-7-10-5-8-2-17-2-16-6-13-9-10-11-7-12-5-16-3-21-5-10-8-7-10-4-6-1h-286l-17 1-19 3-20 6-21 9-20 12-10 8-10 9-4 4h-2l-2 4-10 11-10 15-10 18-8 21-6 21-6 10-9 7-9 3h-10l-11-4-8-7-6-12v-15l5-20 8-21 12-25 9-14 10-14 9-11 4-5 13-13 8-7 17-13 17-11 23-12 21-8 21-6zm0 276-10 4-8 6-6 8-3 10-1 109-3 12-7 14-11 12-12 7-13 4-12 1-14-2-29-10-26-9-10-4v68l3 12 6 10 9 7 9 4 5 1 26 1 10 3 6 4 6 7 4 11 4 37 6 26 7 20 12 25 8 13 10 14 13 15 9 9 11 9 16 12 18 11 21 11 17 7 20 6 17 4 24 3h34l24-3 24-6 20-7 18-8 20-11 16-11 13-10 10-9 2-1v-2l4-2 10-11 11-14 9-14 7-12 8-18 8-24 5-23 2-14 2-24 3-9 5-8 7-5 9-3 25-1 8-3 6-8v-82l-13 2h-15l-17-3-16-6-14-9-10-9-9-10-8-13-3-1-21 4-25 3h-41l-20-2-25-5-26-8-20-8-25-12-20-12-20-14-14-11-10-9-8-7-13-12-7-7-7-8-8-7-12-5zm40 553-6 25-8 19-8 14-8 11-3 3 1 4 10 7 21 12 20 9 16 6 22 6 24 4 11 1h34l18-2 25-5 20-6 22-9 20-10 8-5-1-4-7-7-13-18-9-17-6-16-4-16-16 4-29 6-25 3h-41l-26-3-23-5-24-7-11-4zm-89 112-13 4-41 9-29 6-27 7-26 9-7 3 2 2 43 7 39 8 40 10 41 12 31 11 22 9 29 13 22 11 24 14 17 11 10 5 3 1h15l10-4 19-12 22-13 31-16 30-13 35-13 31-10 36-10 44-10 32-6 32-5 1-2-20-8-31-9-75-16-7 1-18 13-24 14-25 12-24 9-24 7-25 5-23 3-28 1-21-1-29-4-26-6-27-9-21-9-22-11-19-12-14-10-9-7zm-358 88-6 3-4 5-1 4-1 29 67 2 51 3 44 4 41 5 49 8 40 8 48 12 34 10 40 14 32 13 15 7 17 8 22 12 29 17 13 5 13 2 14-1 13-4 17-9 22-13 27-14 33-15 34-13 36-12 31-9 51-12 41-8 53-8 46-5 37-3 40-2 49-1 16-1v-30l-4-7-4-3-5-1h-63l-33 1-46 3-40 4-49 7-43 8-30 7-36 10-36 12-24 9-34 15-27 14-23 14-13 8-12 6-12 4-10 2-17 1-15-2-16-5-16-8-21-13-21-12-17-9-29-13-37-14-28-9-37-10-35-8-44-8-46-6-40-4-45-3-30-1zm-24 102-14 1-7 4-5 7-1 10v285l2 5 3 1 42 2 17 4 16 7 12 8 12 11 8 9 8 13 6 14 4 18 1 16v84l-2 18-4 13-6 11-7 9-1 3-4 2-7 6-16 8-16 4-13 1-55 1v155l1 4 90 1 45 2 52 4 52 6 55 9 35 7 48 12 34 10 29 10 33 13 23 10h1l1-690v-35l-8-5-26-13-34-14-28-10-35-11-48-12-39-8-37-6-37-5-52-5-55-3-35-1zm606 124-22 4h-28l-13-2-10-1v725l9 3 18 3h22l19-4 5-2 1-2v-724zm-696 186-11 9-5 4-6 8-6 10-4 14v101l4 15 7 13 7 9h2l1 3 13 9 11 5 11 3 7 1h90l7-2 4-4 1-4v-99l-4-11-4-6-7-7-10-5-14-2h-20l-14-1-15-4-11-6-10-8-9-10-8-16-3-10-1-9zm1317 0-3 16-4 10-9 14-8 8-9 6-10 5-10 3-20 2-28 1-9 3-8 6-7 8-4 8-1 4v102l5 6 9 2h83l16-2 14-5 11-7 10-9 7-9 6-12 3-10 1-7v-95l-2-10-4-11-7-11-7-7-13-9z"/>
<path transform="translate(1511,1305)" d="m0 0h13l11 4 9 8 5 10 1 4v9l-3 9-4 6-5 5-7 4-8 2-69 5-47 5-47 7-42 8-38 9-26 7-31 9h-14l-9-4-7-6-6-11-1-4v-10l4-10 6-8 8-5 24-8 32-9 38-9 40-8 43-7 49-6 46-4z"/>
<path transform="translate(995,2047)" d="m0 0 3 1z"/>
<path transform="translate(1218)" d="m0 0"/>
</svg>
